<?xml version="1.0" ?><svg id="Layer_1" style="enable-background:new 0 0 50 50;" version="1.1" viewBox="0 0 50 50" xml:space="preserve" xmlns="http://www.w3.org/2000/svg" xmlns:xlink="http://www.w3.org/1999/xlink"><style type="text/css">
	.st0{fill:#F0C4DB;}
	.st1{fill:#FF9D9C;}
	.st2{fill:#9BEAF9;}
	.st3{fill:#E9F4BC;}
	.st4{fill:#505050;}
	.st5{fill:#FEBECC;}
	.st6{fill:#FFFFFF;}
	.st7{fill:#FDE4A1;}
	.st8{fill:#FEE7B5;}
	.st9{fill:#CDF6FC;}
	.st10{fill:#F2C6DD;}
	.st11{opacity:0.1;}
</style><g><path class="st8" d="M1.26,23.57c3.56,2.78,8.03,4.45,12.9,4.45c11.6,0,21-9.4,21-21c0-1.55-0.18-3.06-0.5-4.52H1.26V23.57z"/><g><path class="st1" d="M28.71,26.76v-0.34c-1.66-3.29-3.96-6.22-6.61-8H11.48C5.94,22.15,2,30.99,2,37.29    c0,8.18,6.63,8.95,14.8,8.95c4.86,0,9.16-0.28,11.85-2.21c-0.33-0.39-0.51-0.82-0.51-1.25v-4.86c0,0.47,0.21,0.91,0.58,1.32v-0.05    c-0.37-0.41-0.58-0.86-0.58-1.32V33c0,0.47,0.21,0.91,0.58,1.32v-0.05c-0.37-0.41-0.58-0.86-0.58-1.32v-4.86    C28.13,27.62,28.35,27.18,28.71,26.76z"/><ellipse class="st3" cx="38.07" cy="28.09" rx="9.93" ry="3.97"/><circle class="st3" cx="16.8" cy="32.38" r="8.26"/><path class="st6" d="M22.76,14.42H10.84c-1.1,0-2,0.9-2,2c0,1.1,0.9,2,2,2h11.92c1.1,0,2-0.9,2-2    C24.76,15.32,23.87,14.42,22.76,14.42z"/><path class="st7" d="M38.07,32.05c-5.48,0-9.93-1.78-9.93-3.97v4.86c0,2.19,4.45,3.97,9.93,3.97c5.48,0,9.93-1.78,9.93-3.97v-4.86    C48,30.28,43.55,32.05,38.07,32.05z"/><path class="st7" d="M38.07,36.97c-5.48,0-9.93-1.78-9.93-3.97v4.86c0,2.19,4.45,3.97,9.93,3.97c5.48,0,9.93-1.78,9.93-3.97V33    C48,35.19,43.55,36.97,38.07,36.97z"/><path class="st7" d="M38.07,41.88c-5.48,0-9.93-1.78-9.93-3.97v4.86c0,2.19,4.45,3.97,9.93,3.97c5.48,0,9.93-1.78,9.93-3.97v-4.86    C48,40.11,43.55,41.88,38.07,41.88z"/><path class="st1" d="M21.39,14.42l3-7.71c-4.83-2.4-10.91,3.79-15.18,0l3,7.71H21.39z"/><g><path class="st4" d="M17.55,37.9v-0.49c1.26-0.33,2.2-1.47,2.2-2.84c0-1.63-1.32-2.95-2.95-2.95c-0.8,0-1.45-0.65-1.45-1.45     s0.65-1.45,1.45-1.45s1.45,0.65,1.45,1.45c0,0.41,0.34,0.75,0.75,0.75s0.75-0.34,0.75-0.75c0-1.36-0.94-2.5-2.2-2.84v-0.49     c0-0.41-0.34-0.75-0.75-0.75s-0.75,0.34-0.75,0.75v0.49c-1.26,0.33-2.2,1.47-2.2,2.84c0,1.63,1.32,2.95,2.95,2.95     c0.8,0,1.45,0.65,1.45,1.45s-0.65,1.45-1.45,1.45s-1.45-0.65-1.45-1.45c0-0.41-0.34-0.75-0.75-0.75s-0.75,0.34-0.75,0.75     c0,1.36,0.94,2.5,2.2,2.84v0.49c0,0.41,0.34,0.75,0.75,0.75S17.55,38.31,17.55,37.9z"/><path class="st4" d="M25.81,32.38c0-4.97-4.04-9-9-9s-9,4.04-9,9c0,4.97,4.04,9.01,9,9.01S25.81,37.34,25.81,32.38z M9.3,32.38     c0-4.14,3.37-7.5,7.5-7.5s7.5,3.37,7.5,7.5c0,4.14-3.37,7.51-7.5,7.51S9.3,36.51,9.3,32.38z"/><path class="st4" d="M48.75,28.09c0-3.06-5.5-4.72-10.68-4.72c-3.43,0-6.99,0.73-9.01,2.11c-1.44-2.7-3.18-4.94-5.11-6.58     c0.93-0.44,1.57-1.38,1.57-2.47c0-1.52-1.23-2.75-2.75-2.75h-0.27l2.6-6.69c0.14-0.36-0.02-0.77-0.37-0.94     c-2.51-1.25-5.2-0.45-7.79,0.31c-2.82,0.83-5.25,1.55-7.22-0.2C9.45,5.92,9.07,5.9,8.78,6.09s-0.4,0.56-0.27,0.89l2.6,6.69h-0.27     c-1.52,0-2.75,1.23-2.75,2.75c0,1.09,0.65,2.03,1.57,2.47c-2.18,1.88-4.16,4.54-5.68,7.66c-1.72,3.56-2.72,7.47-2.73,10.73v0.09     c0,0.41,0.33,0.75,0.74,0.75H2c0.41-0.01,0.75-0.34,0.75-0.76c-0.01-0.03-0.01-0.05-0.01-0.08c-0.02-5.62,3.65-14.44,8.97-18.12     h10.16c2.26,1.58,4.41,4.19,6.05,7.36c-0.34,0.47-0.53,0.99-0.53,1.56c0,0,0,4.88,0,4.89c0,0.01,0,0.01,0,0.02v4.86     c0,0.01,0,0.05,0,0.05v4.86c0,0.36,0.08,0.69,0.22,1.01c-2.58,1.48-6.72,1.71-10.5,1.71h-0.57c-6.76,0-11.58-0.76-13.13-4.51     c-0.16-0.37-0.62-0.55-0.99-0.39c-0.38,0.16-0.55,0.6-0.39,0.98c1.02,2.29,2.91,3.79,5.77,4.59c2.71,0.75,6.07,0.83,9.01,0.83     c4.46-0.01,8.7-0.2,11.72-2.01c1.88,1.64,5.79,2.52,9.54,2.52c5.18,0,10.68-1.65,10.68-4.72V28.09z M10.69,8.43     c2.11,0.71,4.42,0.02,6.67-0.64c2.17-0.64,4.23-1.25,6.07-0.66l-2.54,6.55h-8.16L10.69,8.43z M10.84,15.17h1.37h9.19h1.37     c0.69,0,1.25,0.56,1.25,1.25s-0.56,1.25-1.25,1.25h-0.66c0,0,0,0-0.01,0H11.48c0,0,0,0-0.01,0h-0.63c-0.69,0-1.25-0.56-1.25-1.25     S10.15,15.17,10.84,15.17z M38.07,36.17c-5.25,0-9.18-1.7-9.18-3.22v-2.37c1.99,1.45,5.66,2.22,9.18,2.22     c3.52,0,7.19-0.77,9.18-2.22v2.37C47.25,34.47,43.32,36.17,38.07,36.17z M47.25,37.86c0,1.52-3.93,3.22-9.18,3.22     s-9.18-1.7-9.18-3.22V35.5c1.99,1.45,5.66,2.22,9.18,2.22s7.19-0.76,9.18-2.22V37.86z M47.25,28.09c0,1.52-3.93,3.22-9.18,3.22     s-9.18-1.7-9.18-3.22s3.93-3.22,9.18-3.22S47.25,26.57,47.25,28.09z M47.25,42.78c0,1.52-3.93,3.22-9.18,3.22     c-4.27,0-7.66-1.12-8.78-2.35c-0.01-0.02-0.01-0.03-0.02-0.05c-0.01-0.02-0.03-0.03-0.05-0.04c-0.21-0.26-0.33-0.52-0.33-0.77     v-2.36c1.99,1.45,5.66,2.22,9.18,2.22s7.19-0.76,9.18-2.22V42.78z"/><path class="st4" d="M2.28,40.1c0.41-0.07,0.69-0.45,0.62-0.86s-0.46-0.69-0.87-0.62c-0.41,0.07-0.68,0.46-0.61,0.87     c0,0.01,0,0.01,0,0.02c0.07,0.35,0.37,0.6,0.74,0.6C2.2,40.11,2.24,40.11,2.28,40.1z"/></g></g></g></svg>