<?xml version="1.0" ?><svg style="enable-background:new 0 0 256 256;" version="1.1" viewBox="0 0 256 256" xml:space="preserve" xmlns="http://www.w3.org/2000/svg" xmlns:xlink="http://www.w3.org/1999/xlink"><style type="text/css">
	.st0{fill:#D5E2EB;}
	.st1{fill:none;stroke:#00A388;stroke-width:4;stroke-miterlimit:10;}
	.st2{fill:#FFFFFF;}
	.st3{fill:#CC4E47;}
	.st4{fill:#EA685E;}
	.st5{fill:#4B687F;}
	.st6{fill:#2C3E50;}
	.st7{fill:#3E5063;}
	.st8{fill:#FFAB80;}
	.st9{filter:url(#Adobe_OpacityMaskFilter);}
	.st10{mask:url(#SVGID_2_);}
	.st11{fill:#F09A79;}
	.st12{fill:#00886F;}
	.st13{fill:#00A388;}
	.st14{fill:none;stroke:#3E5063;stroke-width:4;stroke-miterlimit:10;}
	.st15{fill:#FFD766;}
	.st16{fill:#5488B7;}
	.st17{fill:#8C623B;}
	.st18{fill:#E6E6E6;stroke:#3E5063;stroke-width:16;stroke-miterlimit:10;}
	.st19{opacity:0.6;}
	.st20{fill:#E6E6E6;}
	.st21{fill:none;stroke:#D5E2EB;stroke-width:5;stroke-miterlimit:10;}
	.st22{fill:#FFEC9F;}
	.st23{fill:#603813;}
	.st24{filter:url(#Adobe_OpacityMaskFilter_1_);}
	.st25{mask:url(#SVGID_1_);}
</style><g id="Layer_2"><circle class="st0" cx="128" cy="128" r="120"/></g><g id="Layer_1"><g><g><path class="st5" d="M58.17838,154.6655h139.68784V69.32594c0-2.49929-2.04488-4.54417-4.54417-4.54417H62.72255     c-2.4993,0-4.54417,2.04488-4.54417,4.54417V154.6655z"/></g><g><path class="st5" d="M148.40526,174.3745c0.73039,2.08173-0.8455,4.07103-2.8476,4.07103H136.2H119.8h-9.35766     c-2.00211,0-3.578-1.9893-2.8476-4.07103H46v5.86537c0,6.06319,4.91518,10.97836,10.97836,10.97836H119.8H136.2h62.82164     c6.06319,0,10.97836-4.91518,10.97836-10.97836v-5.86537H148.40526z"/></g><g><rect class="st2" height="71.70703" width="121.51115" x="67.26672" y="73.87012"/></g><g><polygon class="st7" points="197.86621,157.55962 58.17838,157.55962 46,174.3745 210,174.3745    "/></g><g><circle class="st4" cx="199.79562" cy="182.57449" r="2.89412"/></g></g></g></svg>