<?xml version="1.0" ?><svg id="Layer_1" style="enable-background:new 0 0 50 50;" version="1.1" viewBox="0 0 50 50" xml:space="preserve" xmlns="http://www.w3.org/2000/svg" xmlns:xlink="http://www.w3.org/1999/xlink"><style type="text/css">
	.st0{fill:#F0C4DB;}
	.st1{fill:#FF9D9C;}
	.st2{fill:#9BEAF9;}
	.st3{fill:#E9F4BC;}
	.st4{fill:#505050;}
	.st5{fill:#FEBECC;}
	.st6{fill:#FFFFFF;}
	.st7{fill:#FDE4A1;}
	.st8{fill:#FEE7B5;}
	.st9{fill:#CDF6FC;}
	.st10{fill:#F2C6DD;}
	.st11{opacity:0.1;}
</style><g><path class="st9" d="M19.86,2.13c0,11.6,9.4,21,21,21c2.84,0,5.54-0.57,8.01-1.59V1.13H19.91C19.9,1.46,19.86,1.79,19.86,2.13z"/><g><g><circle class="st3" cx="35.83" cy="36.08" r="12.04"/><path class="st7" d="M35.83,45.12c-4.98,0-9.04-4.06-9.04-9.04s4.06-9.04,9.04-9.04c4.99,0,9.04,4.06,9.04,9.04     S40.82,45.12,35.83,45.12z"/><path class="st6" d="M25.61,29.73c-1.16,1.85-1.82,4.02-1.82,6.36c0,2.34,0.66,4.51,1.82,6.36c0.25,0.42,0.53,0.81,0.84,1.19     c1.85,2.3,4.53,3.9,7.58,4.36c-0.24,0.09-0.5,0.13-0.78,0.13H4.18c-1.28,0-2.3-1.03-2.3-2.31V4.43c0-1.28,1.02-2.31,2.3-2.31     h29.08c1.28,0,2.31,1.03,2.31,2.31v19.62c-2.83,0.06-5.42,1.1-7.45,2.8C27.13,27.66,26.28,28.63,25.61,29.73z"/><rect class="st2" height="8.16" width="27.75" x="4.84" y="5.09"/><rect class="st1" height="6.98" width="6.98" x="4.84" y="17.05"/><rect class="st1" height="6.98" width="6.98" x="15.23" y="17.05"/><rect class="st1" height="6.98" width="6.98" x="25.61" y="17.05"/><rect class="st5" height="6.98" width="6.98" x="4.84" y="26.85"/><rect class="st5" height="6.98" width="6.98" x="15.23" y="26.85"/><rect class="st5" height="6.98" width="6.98" x="4.84" y="36.65"/><rect class="st5" height="6.98" width="6.98" x="15.23" y="36.65"/></g><g><path class="st4" d="M36.31,23.32V4.43c0-1.68-1.37-3.06-3.06-3.06H4.18c-1.68,0-3.05,1.38-3.05,3.06v34.08     c0,0.42,0.33,0.75,0.75,0.75c0.41,0,0.75-0.33,0.75-0.75c0,0,0-0.01-0.01-0.01V4.43c0.01-0.87,0.69-1.56,1.56-1.56h27.24     c0.02,0,0.04,0.01,0.07,0h1.76c0.86,0,1.56,0.7,1.56,1.56v18.91c-0.5,0.04-0.99,0.1-1.47,0.2v-6.49c0-0.41-0.34-0.75-0.75-0.75     h-6.98c-0.41,0-0.75,0.34-0.75,0.75v6.98c0,0.41,0.34,0.75,0.75,0.75h4.26c-4.06,2.15-6.83,6.41-6.83,11.31     c0,4.89,2.76,9.14,6.79,11.29H4.18c-0.87,0-1.55-0.68-1.56-1.55v-3.31c0-0.41-0.33-0.75-0.74-0.75c-0.42,0-0.75,0.34-0.75,0.75     v3.31c0,1.68,1.37,3.05,3.05,3.05h29.07c0.19,0,0.36-0.07,0.49-0.19c0.68,0.11,1.38,0.19,2.1,0.19c7.05,0,12.79-5.74,12.79-12.79     C48.62,29.19,43.14,23.57,36.31,23.32z M26.36,17.8h5.48v5.48h-5.48V17.8z M35.83,47.37c-6.23,0-11.29-5.06-11.29-11.29     s5.06-11.29,11.29-11.29s11.29,5.06,11.29,11.29S42.06,47.37,35.83,47.37z"/><path class="st4" d="M35.83,26.29c-5.4,0-9.79,4.39-9.79,9.79s4.39,9.79,9.79,9.79s9.79-4.39,9.79-9.79S41.23,26.29,35.83,26.29z      M35.83,44.37c-4.57,0-8.29-3.72-8.29-8.29s3.72-8.29,8.29-8.29s8.29,3.72,8.29,8.29S40.4,44.37,35.83,44.37z"/><path class="st4" d="M35.83,32.26c0.85,0,1.54,0.69,1.54,1.53c0,0.41,0.34,0.75,0.75,0.75s0.75-0.34,0.75-0.75     c0-1.41-0.98-2.59-2.29-2.93v-0.53c0-0.41-0.34-0.75-0.75-0.75s-0.75,0.34-0.75,0.75v0.53c-1.31,0.34-2.28,1.52-2.28,2.93     c0,1.67,1.36,3.04,3.03,3.04c0.85,0,1.54,0.69,1.54,1.53c0,0.85-0.69,1.54-1.54,1.54c-0.85,0-1.53-0.69-1.53-1.54     c0-0.41-0.34-0.75-0.75-0.75s-0.75,0.34-0.75,0.75c0,1.41,0.97,2.59,2.28,2.93v0.53c0,0.41,0.34,0.75,0.75,0.75     s0.75-0.34,0.75-0.75V41.3c1.31-0.34,2.29-1.52,2.29-2.93c0-1.67-1.36-3.03-3.04-3.03c-0.85,0-1.53-0.69-1.53-1.54     C34.3,32.95,34.98,32.26,35.83,32.26z"/><path class="st4" d="M1.88,41.26c0.41,0,0.74-0.34,0.74-0.75c0-0.41-0.33-0.75-0.74-0.75c-0.42,0-0.75,0.34-0.75,0.75     C1.13,40.92,1.46,41.26,1.88,41.26z"/><path class="st4" d="M33.34,13.25V5.09c0-0.41-0.34-0.75-0.75-0.75H4.84c-0.41,0-0.75,0.34-0.75,0.75v8.16     c0,0.41,0.34,0.75,0.75,0.75h27.75C33,14,33.34,13.66,33.34,13.25z M31.84,12.5H5.59V5.84h26.25V12.5z"/><path class="st4" d="M4.09,24.03c0,0.41,0.34,0.75,0.75,0.75h6.98c0.41,0,0.75-0.34,0.75-0.75v-6.98c0-0.41-0.34-0.75-0.75-0.75     H4.84c-0.41,0-0.75,0.34-0.75,0.75V24.03z M5.59,17.8h5.48v5.48H5.59V17.8z"/><path class="st4" d="M22.95,17.05c0-0.41-0.34-0.75-0.75-0.75h-6.98c-0.41,0-0.75,0.34-0.75,0.75v6.98     c0,0.41,0.34,0.75,0.75,0.75h6.98c0.41,0,0.75-0.34,0.75-0.75V17.05z M21.45,23.28h-5.48V17.8h5.48V23.28z"/><path class="st4" d="M4.09,33.83c0,0.41,0.34,0.75,0.75,0.75h6.98c0.41,0,0.75-0.34,0.75-0.75v-6.98c0-0.41-0.34-0.75-0.75-0.75     H4.84c-0.41,0-0.75,0.34-0.75,0.75V33.83z M5.59,27.6h5.48v5.48H5.59V27.6z"/><path class="st4" d="M22.95,26.85c0-0.41-0.34-0.75-0.75-0.75h-6.98c-0.41,0-0.75,0.34-0.75,0.75v6.98     c0,0.41,0.34,0.75,0.75,0.75h6.98c0.41,0,0.75-0.34,0.75-0.75V26.85z M21.45,33.08h-5.48V27.6h5.48V33.08z"/><path class="st4" d="M4.09,43.63c0,0.41,0.34,0.75,0.75,0.75h6.98c0.41,0,0.75-0.34,0.75-0.75v-6.98c0-0.41-0.34-0.75-0.75-0.75     H4.84c-0.41,0-0.75,0.34-0.75,0.75V43.63z M5.59,37.4h5.48v5.48H5.59V37.4z"/><path class="st4" d="M22.2,35.9h-6.98c-0.41,0-0.75,0.34-0.75,0.75v6.98c0,0.41,0.34,0.75,0.75,0.75h6.98     c0.41,0,0.75-0.34,0.75-0.75v-6.98C22.95,36.23,22.62,35.9,22.2,35.9z M21.45,42.88h-5.48V37.4h5.48V42.88z"/></g></g></g></svg>